<?xml version="1.0" standalone="no"?>
<!DOCTYPE svg PUBLIC "-//W3C//DTD SVG 20010904//EN"
 "http://www.w3.org/TR/2001/REC-SVG-20010904/DTD/svg10.dtd">
<svg version="1.0" xmlns="http://www.w3.org/2000/svg"
 width="128.000000pt" height="128.000000pt" viewBox="0 0 128.000000 128.000000"
 preserveAspectRatio="xMidYMid meet">
<metadata>
Created by potrace 1.14, written by Peter Selinger 2001-2017
</metadata>
<g transform="translate(0.000000,128.000000) scale(0.100000,-0.100000)"
fill="#000000" stroke="none">
<path d="M423 1253 c-19 -28 -21 -25 52 -76 29 -21 51 -68 61 -132 l6 -46 -48
29 c-69 40 -110 53 -138 42 -23 -8 -29 -19 -62 -118 -17 -50 -19 -52 -34 -34
-23 30 -50 39 -105 36 -109 -6 -116 12 -30 70 106 70 89 104 -56 115 -4 1 -9
10 -12 21 -4 15 6 32 36 60 40 39 40 40 15 40 -49 0 -108 -69 -100 -116 5 -32
36 -55 89 -69 l48 -12 -52 -29 c-63 -34 -75 -60 -43 -86 18 -14 37 -18 84 -16
114 3 124 -14 60 -105 -40 -55 -40 -57 -15 -57 11 0 32 15 46 33 18 20 25 25
20 12 -10 -29 -216 -607 -222 -625 -11 -28 -16 -63 -14 -92 1 -23 67 -86 94
-90 32 -5 82 14 199 75 113 59 287 150 533 277 195 102 193 100 198 122 6 21
-22 77 -69 137 -26 34 -31 47 -21 52 18 11 180 37 255 42 70 5 85 14 80 48 -3
23 -5 24 -87 21 -46 -1 -127 -12 -180 -23 -53 -11 -107 -23 -121 -25 -20 -4
-37 7 -85 53 -33 32 -93 85 -132 117 -47 38 -73 66 -74 80 -4 71 -7 96 -18
143 -15 60 -66 126 -111 142 -27 9 -32 7 -47 -16z"/>
<path d="M1200 1255 c-11 -13 -11 -23 -2 -49 30 -82 9 -112 -72 -102 -65 9
-96 -4 -96 -39 0 -27 29 -95 41 -95 4 0 9 -7 13 -15 11 -29 -49 -16 -110 24
-78 52 -98 57 -123 32 -16 -16 -19 -30 -16 -95 5 -93 15 -115 50 -108 25 4 25
5 21 84 -6 94 -1 112 24 98 10 -5 25 -16 32 -24 37 -36 103 -55 142 -40 18 7
22 69 6 79 -16 10 -41 65 -35 75 3 5 23 4 48 -3 23 -7 48 -12 55 -11 6 1 21 2
32 3 12 0 31 12 44 26 28 30 27 89 -1 138 -22 37 -36 43 -53 22z"/>
<path d="M597 1208 l-27 -23 26 -30 25 -29 27 27 27 27 -26 25 -25 26 -27 -23z"/>
<path d="M983 1208 c-20 -22 -20 -24 -3 -51 l17 -28 29 24 c27 24 28 25 11 51
-21 32 -28 32 -54 4z"/>
<path d="M390 1153 l-21 -27 28 -22 28 -22 22 26 22 26 -21 23 c-27 29 -32 29
-58 -4z"/>
<path d="M253 1103 c-29 -20 -29 -34 0 -61 l23 -22 23 24 c23 24 23 25 5 50
-22 30 -22 30 -51 9z"/>
<path d="M668 1015 l-28 -24 24 -27 23 -28 26 25 26 24 -22 27 -22 27 -27 -24z"/>
<path d="M85 637 c-20 -29 -19 -35 8 -58 29 -24 32 -24 45 6 17 38 15 51 -13
63 -21 10 -27 8 -40 -11z"/>
<path d="M1068 534 c-22 -12 -26 -18 -19 -36 13 -35 34 -43 64 -23 26 17 27
18 10 46 -20 33 -19 33 -55 13z"/>
<path d="M1200 450 c-21 -18 -22 -23 -10 -45 16 -30 27 -31 59 -6 24 18 24 20
8 45 -21 31 -27 32 -57 6z"/>
<path d="M1086 318 c-10 -38 -7 -46 22 -53 15 -4 29 -7 31 -8 3 -1 8 11 12 27
6 22 4 32 -9 42 -26 20 -49 16 -56 -8z"/>
<path d="M847 316 c-18 -14 -18 -16 -2 -40 21 -31 36 -33 60 -6 17 19 17 21 0
40 -21 23 -33 25 -58 6z"/>
<path d="M1128 184 c-27 -14 -27 -15 -11 -49 16 -34 16 -34 47 -18 17 8 33 17
34 19 5 4 -31 64 -38 64 -3 -1 -17 -7 -32 -16z"/>
</g>
</svg>
